<?xml version="1.0" encoding="UTF-8" standalone="no"?>
<!-- Created with Inkscape (http://www.inkscape.org/) -->

<svg
   version="1.1"
   id="svg39"
   width="680"
   height="683"
   viewBox="0 0 680 683"
   sodipodi:docname="dock_aura.svg"
   inkscape:version="1.2 (1:1.2.1+202207142221+cd75a1ee6d)"
   xmlns:inkscape="http://www.inkscape.org/namespaces/inkscape"
   xmlns:sodipodi="http://sodipodi.sourceforge.net/DTD/sodipodi-0.dtd"
   xmlns="http://www.w3.org/2000/svg"
   xmlns:svg="http://www.w3.org/2000/svg">
  <defs
     id="defs43">
    <filter
       inkscape:label="Opacity"
       style="color-interpolation-filters:sRGB"
       id="filter215"
       x="0"
       y="0"
       width="1"
       height="1">
      <feColorMatrix
         values="1 0 0 0 0 0 1 0 0 0 0 0 1 0 0 0 0 0 5 -1 "
         result="colormatrix"
         id="feColorMatrix211" />
      <feComposite
         in2="colormatrix"
         operator="arithmetic"
         k2="0.496534"
         result="composite"
         id="feComposite213"
         k1="0"
         k3="0"
         k4="0" />
    </filter>
  </defs>
  <sodipodi:namedview
     id="namedview41"
     pagecolor="#ffffff"
     bordercolor="#000000"
     borderopacity="0.25"
     inkscape:showpageshadow="2"
     inkscape:pageopacity="0.0"
     inkscape:pagecheckerboard="0"
     inkscape:deskcolor="#d1d1d1"
     showgrid="false"
     inkscape:zoom="1.1903367"
     inkscape:cx="306.21587"
     inkscape:cy="341.5"
     inkscape:window-width="2520"
     inkscape:window-height="1016"
     inkscape:window-x="0"
     inkscape:window-y="27"
     inkscape:window-maximized="1"
     inkscape:current-layer="g45" />
  <g
     inkscape:groupmode="layer"
     inkscape:label="Image"
     id="g45">
    <path
       style="fill:#ff7f2a;filter:url(#filter215)"
       d="m 331.5,681.96108 c -13.75,-0.35761 -25.1125,-0.72015 -25.25,-0.80564 -0.1375,-0.0855 -0.25,-1.85765 -0.25,-3.93813 v -3.78269 l 6.75,0.26717 c 3.7125,0.14694 19.2375,0.55035 34.5,0.89647 L 375,675.22755 V 679.11378 683 l -9.25,-0.19436 c -5.0875,-0.1069 -20.5,-0.48695 -34.25,-0.84456 z M 221,663.11407 c -0.825,-0.45382 -14.43566,-7.44104 -30.24591,-15.52716 l -28.74591,-14.70204 1.62309,-3.19244 c 0.89269,-1.75584 1.74472,-3.33379 1.89338,-3.50657 0.14867,-0.17278 14.02095,6.71742 30.82729,15.31156 l 30.55699,15.62571 -1.63968,3.43843 c -1.75781,3.68618 -1.97369,3.81524 -4.26925,2.55251 z m 234.72871,-2.55679 -1.64172,-3.44272 30.541,-15.63945 c 16.79755,-8.6017 30.67075,-15.48998 30.82933,-15.30728 0.15858,0.18269 1.01598,1.76347 1.90533,3.51283 l 1.617,3.18066 -30.39191,15.56934 C 471.87219,656.9938 458.01012,664 457.78313,664 c -0.22699,0 -1.15148,-1.54922 -2.05442,-3.44272 z M 74.141674,553.9226 52.954744,526.943 55.727372,524.5031 C 57.252317,523.16116 58.725,522.07015 59,522.07863 c 0.755731,0.0233 41.45421,52.11182 41.80295,53.50207 0.16662,0.66424 -0.996943,2.13331 -2.585699,3.2646 l -2.888648,2.0569 z m 507.652516,24.62963 -2.70581,-2.38028 20.70581,-26.36256 c 11.3882,-14.4994 21.00561,-26.57559 21.37203,-26.83597 0.36642,-0.26038 2.03626,0.5395 3.71076,1.77751 l 3.04454,2.25092 -21.04896,26.74908 c -11.57693,14.71199 -21.34677,26.84639 -21.71076,26.96533 -0.36399,0.11894 -1.87941,-0.85487 -3.36761,-2.16403 z M 16,450.49348 c 0,-0.36599 -3.382432,-15.31931 -7.5165151,-33.22961 -4.1340832,-17.91029 -7.3451982,-32.73549 -7.1358111,-32.94488 0.2093872,-0.20938 1.8154009,-0.79217 3.5689195,-1.29507 2.4209014,-0.6943 3.3144592,-0.58538 3.7127622,0.45258 1.6287765,4.24452 15.1224775,65.1309 14.5534415,65.66815 C 22.16468,450.10588 16,451.26352 16,450.49348 Z m 643.25,-0.19921 c -1.2375,-0.23836 -2.25,-0.66576 -2.25,-0.9498 0,-1.25256 15.0972,-65.775 15.4798,-66.1576 0.23482,-0.23482 2.04544,-0.12332 4.0236,0.24779 2.73943,0.51392 3.48521,1.07879 3.12908,2.37004 -0.25716,0.93241 -3.73169,15.9828 -7.72117,33.4453 -5.84515,25.58503 -7.56017,31.72356 -8.83246,31.61382 -0.86837,-0.0749 -2.59135,-0.3312 -3.82885,-0.56955 z m -656,-150 C 2.0125,300.05591 1,299.62851 1,299.34447 c 0,-1.25256 15.097197,-65.775 15.479799,-66.1576 0.234819,-0.23482 2.067874,-0.11911 4.073454,0.25714 3.00264,0.5633 3.555094,1.03367 3.128782,2.66389 -0.284751,1.08889 -3.781714,16.13507 -7.771029,33.43595 -5.837943,25.31802 -7.5613868,31.42958 -8.8321534,31.31997 C 6.2104837,300.78892 4.4875,300.53262 3.25,300.29427 Z M 672,300.70944 c 0,-0.30373 -3.39632,-15.26629 -7.54738,-33.25012 -4.15106,-17.98384 -7.41356,-32.82908 -7.25,-32.98942 0.16356,-0.16034 1.90268,-0.59132 3.86472,-0.95774 l 3.56734,-0.66621 7.6528,33.27355 c 4.20905,18.30045 7.497,33.42935 7.30657,33.61978 C 678.95389,300.37944 672,301.26782 672,300.70944 Z m -71.69963,-165.92863 -21.19964,-26.99469 3.01773,-2.53925 c 2.5575,-2.15199 3.21323,-2.32632 4.29962,-1.14306 3.36481,3.66484 40.71467,51.89386 40.73094,52.59493 0.0102,0.44069 -1.25661,1.76325 -2.81521,2.93901 L 621.5,161.77549 Z M 55.799721,158.74503 53.099442,156.5 74.020159,130.00985 c 11.506395,-14.56958 21.27152,-26.58982 21.700279,-26.71165 0.428759,-0.12183 2.004013,0.78023 3.500564,2.00459 l 2.720998,2.2261 -21.0173,26.73555 c -11.559517,14.70456 -21.333968,26.73332 -21.721002,26.73059 -0.387034,-0.003 -1.918824,-1.01523 -3.403977,-2.25 z M 484.29437,42.287615 454.08875,26.729062 l 1.5828,-3.114531 c 0.87054,-1.712992 1.70261,-3.254065 1.84903,-3.424606 0.31899,-0.371514 22.75648,10.792238 45.18511,22.481808 l 16.2057,8.446239 -1.64091,3.441014 c -0.9025,1.892558 -1.89506,3.406402 -2.20569,3.364098 -0.31064,-0.0423 -14.15732,-7.078264 -30.77042,-15.635469 z M 163.22749,52.791744 c -0.66604,-1.764541 -0.87719,-3.502424 -0.46923,-3.861962 0.61945,-0.545929 56.83254,-26.068053 60.59819,-27.51307 1.08224,-0.415295 4.39237,6.254215 3.48535,7.022567 C 226.03919,29.119185 165.94667,56 165.22934,56 c -0.43498,0 -1.33581,-1.443715 -2.00185,-3.208256 z M 323.25,9.251607 306,8.9527721 V 4.8179256 0.68307902 L 325.66081,1.3415395 C 336.47425,1.7036928 351.99925,2 360.16081,2 H 375 v 4 4 L 357.75,9.7752209 C 348.2625,9.6515925 332.7375,9.4159662 323.25,9.251607 Z"
       id="path209" />
  </g>
</svg>
