<?xml version="1.0" encoding="UTF-8" standalone="no"?>
<!-- Created with Inkscape (http://www.inkscape.org/) -->

<svg
   version="1.1"
   id="svg105"
   width="468.20563"
   height="468.22366"
   viewBox="0 0 468.20563 468.22366"
   sodipodi:docname="crosshair.png"
   inkscape:export-filename="crosshair.svg"
   inkscape:export-xdpi="96"
   inkscape:export-ydpi="96"
   xmlns:inkscape="http://www.inkscape.org/namespaces/inkscape"
   xmlns:sodipodi="http://sodipodi.sourceforge.net/DTD/sodipodi-0.dtd"
   xmlns="http://www.w3.org/2000/svg"
   xmlns:svg="http://www.w3.org/2000/svg">
  <defs
     id="defs109" />
  <sodipodi:namedview
     id="namedview107"
     pagecolor="#ffffff"
     bordercolor="#000000"
     borderopacity="0.25"
     inkscape:showpageshadow="2"
     inkscape:pageopacity="0.0"
     inkscape:pagecheckerboard="0"
     inkscape:deskcolor="#d1d1d1"
     showgrid="false" />
  <g
     inkscape:groupmode="layer"
     inkscape:label="Image"
     id="g111"
     transform="translate(-21.893755,-21.921333)">
    <path
       style="display:inline;fill:#ff7f2a"
       d="m 248.43709,486.93649 -2.93709,-3.06352 -0.32761,-18.30558 -0.32761,-18.30559 -7.67239,-0.69214 c -12.13483,-1.09471 -27.64773,-4.38939 -40.85639,-8.6772 -15.22673,-4.94292 -38.85925,-16.76504 -51.24937,-25.63739 C 133.93012,404.28042 115.4134,386.78954 106.78649,376.0957 83.766564,347.5604 68.277489,309.74793 65.380859,275.01483 L 64.712448,267 49.606224,266.989 c -18.39649,-0.0134 -21.878906,-0.5344 -25.099633,-3.75513 -3.445018,-3.44501 -3.489913,-9.97795 -0.09572,-13.9281 L 26.82175,246.5 45.630839,246 64.439928,245.5 65.630299,235 c 4.04019,-35.63762 18.845853,-71.49334 40.672961,-98.5 6.27121,-7.75937 20.46466,-22.06993 28.19674,-28.42941 28.48071,-23.424783 67.02926,-39.424693 102.75,-42.647279 l 7.75,-0.699174 0.006,-15.612069 c 0.006,-17.440984 0.86975,-22.082242 4.66372,-25.066582 3.85995,-3.036236 10.29015,-2.781106 13.40639,0.531924 2.34376,2.491775 2.44092,3.197077 2.92431,21.228204 l 0.5,18.650795 10.5,1.231439 c 57.45902,6.738786 107.42884,37.527212 139.27369,85.812152 15.46974,23.45607 25.51184,50.67133 29.26839,79.32073 0.91439,6.9736 1.82737,13.24177 2.02884,13.92927 0.27561,0.94049 4.85001,1.25 18.47462,1.25 h 18.10831 l 2.92307,2.92308 c 5.64722,5.64721 3.01648,14.84589 -4.87241,17.0369 -2.03748,0.56588 -10.711,1.03138 -19.27448,1.03444 l -15.56997,0.006 -1.20161,10.25 c -5.2914,45.13674 -25.02045,85.17468 -57.29446,116.27282 -31.13015,29.99595 -68.80214,47.73864 -112.1573,52.82366 l -10.20669,1.19711 -0.5,18.81733 -0.5,18.81733 -2.80576,2.41088 c -4.23969,3.64298 -10.40958,3.36054 -14.25715,-0.65264 z M 245.00558,416.25 c 0.007,-12.51286 1.18128,-16.78339 5.30579,-19.29828 3.67177,-2.23883 6.5038,-2.44868 10.21657,-0.75703 4.43635,2.02133 5.47206,5.50385 5.47206,18.39943 v 11.69343 l 7.75,-0.66079 c 18.55764,-1.5823 40.51393,-8.11535 59.07161,-17.57662 39.18207,-19.97621 68.09977,-52.55791 83.47369,-94.05014 4.00866,-10.81886 8.26591,-29.0598 9.27724,-39.75 l 0.68588,-7.25 -9.87921,-0.006 c -5.43357,-0.003 -11.54624,-0.46856 -13.58372,-1.03444 -7.88889,-2.19101 -10.51963,-11.38969 -4.87241,-17.0369 L 400.84615,246 h 12.72053 12.72052 l -0.67231,-7.23381 C 418.95371,167.09457 364.06741,105.37395 293,89.638419 286.675,88.237956 278.0125,86.784326 273.75,86.40813 L 266,85.724137 v 12.714854 12.714859 l -2.92308,2.92307 c -5.64721,5.64722 -14.84589,3.01648 -17.0369,-4.87241 -0.56588,-2.03748 -1.03138,-8.15015 -1.03444,-13.58372 L 245,85.741579 237.75,86.450515 C 211.82657,88.98542 183.27573,99.473147 160.46199,114.84112 129.38306,135.77675 106.1011,166.56477 94.016653,202.70832 90.076847,214.49194 86,234.52415 86,242.09937 V 246 h 12.444236 c 11.516714,0 12.642064,0.17016 15.098374,2.283 3.74729,3.22328 4.49733,10.14638 1.50943,13.93256 -2.85316,3.61543 -7.55863,4.77216 -19.439972,4.77886 l -9.887931,0.006 0.695433,7.75 c 3.626346,40.41248 26.66836,83.86154 58.75448,110.79011 25.93782,21.76856 53.52381,34.12476 88.82595,39.78657 1.375,0.22053 4.4125,0.46224 6.75,0.53714 L 245,426 l 0.006,-9.75 z m -60.0825,-78.17308 C 182.53026,335.6841 182,334.31011 182,330.50269 c 0,-4.28367 0.4436,-5.11624 5.61449,-10.53738 l 5.6145,-5.88621 -4.72855,-6.28955 c -6.13052,-8.15436 -11.91283,-19.73107 -14.73661,-29.50409 -1.87706,-6.49643 -2.24647,-10.18621 -2.23115,-22.28546 0.0214,-16.88805 1.23726,-22.45411 8.06999,-36.9428 l 4.45314,-9.4428 -5.41419,-5.5572 c -2.9778,-3.05646 -5.91536,-6.54012 -6.5279,-7.74146 C 168.60349,189.43137 173.40643,182 181.36608,182 c 4.09966,0 5.08017,0.51869 10.54538,5.57851 3.91548,3.62505 6.47422,5.30746 7.307,4.80448 0.70485,-0.42572 3.49111,-2.51108 6.1917,-4.63413 2.70058,-2.12305 9.0793,-5.88826 14.17493,-8.36714 27.88657,-13.56602 62.32722,-10.23639 86.81142,8.39271 2.69308,2.04906 5.46592,4.14825 6.16187,4.66487 0.89631,0.66534 3.05771,-0.72008 7.4105,-4.75 5.03352,-4.66015 6.77691,-5.6893 9.63778,-5.6893 4.58644,0 8.71462,2.21496 10.19865,5.47206 2.54286,5.58097 1.38195,8.5499 -6.51005,16.64892 l -5.47731,5.62099 4.03568,8.37901 c 14.28103,29.65075 11.37578,63.23867 -7.63555,88.27553 -2.04494,2.69308 -4.14076,5.46592 -4.65738,6.16187 -0.66534,0.89631 0.72008,3.05771 4.75,7.4105 5.10003,5.50864 5.6893,6.59435 5.6893,10.48236 0,6.2001 -4.12179,10.54876 -9.99844,10.54876 -3.81169,0 -4.81933,-0.60175 -11.00115,-6.5698 l -6.80513,-6.56979 -9.52901,4.63559 c -13.33088,6.48509 -25.33151,8.8948 -40.66627,8.16571 -13.55677,-0.64455 -22.72917,-2.99485 -34.20406,-8.76431 l -8.07407,-4.05956 -5.61094,5.46736 c -3.08601,3.00705 -6.59385,5.96854 -7.79519,6.58108 -3.9588,2.01853 -8.2456,1.33771 -11.39266,-1.80936 z m 82.72406,-19.01 c 5.00353,-0.9489 14.63519,-4.29757 17.34573,-6.03064 1.23672,-0.79074 0.84819,-1.61472 -2.26444,-4.80235 -6.82352,-6.98791 -6.687,-15.13552 0.31427,-18.75601 4.79497,-2.47958 8.96919,-1.23369 15.32323,4.57354 l 5.44396,4.97548 3.59022,-4.89086 c 10.76827,-14.66932 15.09045,-34.94606 11.07753,-51.96831 C 317.00542,235.92282 313.20187,226 312.28031,226 c -0.26038,0 -2.51832,1.8 -5.01765,4 -3.75056,3.30137 -5.27293,4 -8.71636,4 -3.26055,0 -4.73467,-0.60085 -6.74686,-2.75 -5.43476,-5.80468 -4.88797,-10.16141 2.21831,-17.67526 l 4.92499,-5.20744 -4.72137,-3.56688 c -22.41336,-16.93276 -53.34533,-16.94847 -76.54381,-0.0389 l -4.82243,3.51512 3.92464,4.11166 c 7.50798,7.86576 8.60962,11.0242 5.76428,16.52647 -1.79444,3.47007 -7.78943,6.4914 -11.18791,5.63844 -1.36089,-0.34156 -4.41058,-2.40577 -6.77708,-4.58714 -2.3665,-2.18136 -4.56884,-3.96611 -4.8941,-3.96611 -1.06548,0 -4.78044,9.36293 -6.34836,16 -1.94888,8.24969 -1.35444,25.32611 1.13134,32.5 2.47556,7.14439 6.08938,14.129 10.22584,19.76399 l 3.58606,4.88519 4.61008,-4.51769 c 5.79542,-5.67928 9.23069,-7.07682 13.73849,-5.58911 8.80202,2.90493 9.76102,12.60023 1.9666,19.88193 -1.42725,1.33338 -2.59501,2.7446 -2.59501,3.13606 0,1.13646 6.94558,4.14049 14,6.05513 7.18437,1.94991 20.0479,2.39258 27.64714,0.95142 z m -18.72406,-55.99 C 242.52129,256.67514 246.88728,246 255.9073,246 c 9.23362,0 13.91602,10.90395 7.45634,17.36364 -3.86178,3.86177 -10.42233,3.73151 -14.44056,-0.28672 z"
       id="path223"
       sodipodi:insensitive="true" />
  </g>
</svg>
